# xmcd CD database file
#
# Track frame offsets:
#	150
#	14775
#	35580
#	54003
#	70130
#	96620
#	122238
#	144065
#	162158
#	189233
#	211650
#	234050
#	250788
#	271668
#	288703
#
# Disc length: 4067 seconds
#
# Revision: 0
# Processed by: cddbd v1.5.2PL0 Copyright (c) Steve Scherf et al.
# Submitted via: CDex 1.51
#
DISCID=ca0fe10f
DTITLE=Ohta-san - Ukulele Bossa Nova - Tribute to Antonio Carlos Jobim
DYEAR=2007
DGENRE=Jazz
TTITLE0=A Felicidade
TTITLE1=Meditation
TTITLE2=The Girl From Ipanema
TTITLE3=How Insensitive
TTITLE4=Wave
TTITLE5=I Know I Am Going To Love You
TTITLE6=Look To The Sky
TTITLE7=Forgetting You
TTITLE8=Once I Loved
TTITLE9=Desafinado
TTITLE10=Corcovado
TTITLE11=Favela
TTITLE12=Triste
TTITLE13=Dindi
TTITLE14=One Note Samba
EXTD=YEAR: 2007
EXTT0=
EXTT1=
EXTT2=
EXTT3=
EXTT4=
EXTT5=
EXTT6=
EXTT7=
EXTT8=
EXTT9=
EXTT10=
EXTT11=
EXTT12=
EXTT13=
EXTT14=
PLAYORDER=
